<svg xmlns="http://www.w3.org/2000/svg" xmlns:xlink="http://www.w3.org/1999/xlink" viewBox="0 0 64 64"><path d="M18 15.25h28v20H18z" fill="#ffd740"/><g fill="#263238"><path d="M54.75 61.75h-36a.5.5 0 1 1 0-1c2.206 0 4-1.794 4-4v-19.5a.5.5 0 0 1 .5-.5h36a.5.5 0 0 1 .5.5v19.5c0 2.757-2.243 5-5 5zm-33.003-1H54.75c2.206 0 4-1.794 4-4v-19h-35v19c0 1.634-.788 3.087-2.003 4zm-9.997-25h-7a.5.5 0 0 1-.5-.5v-19.5c0-2.757 2.243-5 5-5a.5.5 0 1 1 0 1c-2.206 0-4 1.794-4 4v19h6.5a.5.5 0 1 1 0 1z"/><path d="M18.5 61.75h-.026a5.49 5.49 0 0 1-5.225-5.475V15.75c0-2.206-1.794-4-4-4a.5.5 0 1 1 0-1h36c2.757 0 5 2.243 5 5v19.5a.5.5 0 1 1-1 0v-19.5c0-2.206-1.794-4-4-4H12.247c1.215.913 2.003 2.366 2.003 4v40.525a4.49 4.49 0 0 0 4.275 4.476.5.5 0 0 1 .475.524.5.5 0 0 1-.5.475zm19.5-26a.5.5 0 0 1-.5-.5v-3.5H34a.5.5 0 0 1-.5-.5v-3.5H30a.5.5 0 0 1-.5-.5v-3.5H26a.5.5 0 0 1-.5-.5v-3.5H22a.5.5 0 0 1-.5-.5v-3.5H18a.5.5 0 1 1 0-1h4a.5.5 0 0 1 .5.5v3.5H26a.5.5 0 0 1 .5.5v3.5H30a.5.5 0 0 1 .5.5v3.5H34a.5.5 0 0 1 .5.5v3.5H38a.5.5 0 0 1 .5.5v4a.5.5 0 0 1-.5.5zm8 0a.5.5 0 0 1-.5-.5v-3.5H42a.5.5 0 0 1-.5-.5v-3.5H38a.5.5 0 0 1-.5-.5v-3.5H34a.5.5 0 0 1-.5-.5v-3.5H30a.5.5 0 0 1-.5-.5v-3.5H26a.5.5 0 1 1 0-1h4a.5.5 0 0 1 .5.5v3.5H34a.5.5 0 0 1 .5.5v3.5H38a.5.5 0 0 1 .5.5v3.5H42a.5.5 0 0 1 .5.5v3.5H46a.5.5 0 0 1 .5.5v4a.5.5 0 0 1-.5.5zm0-8a.5.5 0 0 1-.5-.5v-3.5H42a.5.5 0 0 1-.5-.5v-3.5H38a.5.5 0 0 1-.5-.5v-3.5H34a.5.5 0 1 1 0-1h4a.5.5 0 0 1 .5.5v3.5H42a.5.5 0 0 1 .5.5v3.5H46a.5.5 0 0 1 .5.5v4a.5.5 0 0 1-.5.5zm0-8a.5.5 0 0 1-.5-.5v-3.5H42a.5.5 0 1 1 0-1h4a.5.5 0 0 1 .5.5v4a.5.5 0 0 1-.5.5zm-24 16a.5.5 0 0 1-.5-.5v-3.5H18a.5.5 0 1 1 0-1h4a.5.5 0 0 1 .5.5v4a.5.5 0 0 1-.5.5zm8 0a.5.5 0 0 1-.5-.5v-3.5H26a.5.5 0 0 1-.5-.5v-3.5H22a.5.5 0 0 1-.5-.5v-3.5H18a.5.5 0 1 1 0-1h4a.5.5 0 0 1 .5.5v3.5H26a.5.5 0 0 1 .5.5v3.5H30a.5.5 0 0 1 .5.5v4a.5.5 0 0 1-.5.5z"/><use xlink:href="#B"/><use xlink:href="#B" x="8"/><use xlink:href="#C"/><path d="M55.25 44.75a.5.5 0 0 1-.5-.5v-3.5h-3.5a.5.5 0 1 1 0-1h4a.5.5 0 0 1 .5.5v4a.5.5 0 0 1-.5.5zm-24 16a.5.5 0 0 1-.5-.5v-3.5h-3.5a.5.5 0 1 1 0-1h4a.5.5 0 0 1 .5.5v4a.5.5 0 0 1-.5.5z"/><use xlink:href="#C" x="-16" y="8"/><path d="M10 44.25a.5.5 0 0 1-.5-.5v-1a.5.5 0 1 1 1 0v1a.5.5 0 0 1-.5.5zm0 12.5a.5.5 0 0 1-.5-.5v-10.5a.5.5 0 1 1 1 0v10.5a.5.5 0 0 1-.5.5zm44-26.5a.5.5 0 0 1-.5-.5v-1a.5.5 0 1 1 1 0v1a.5.5 0 0 1-.5.5zm0-3a.5.5 0 0 1-.5-.5v-10.5a.5.5 0 1 1 1 0v10.5a.5.5 0 0 1-.5.5zm4.75-17.5h-4a.5.5 0 1 1 0-1h4a.5.5 0 1 1 0 1zm-7.5-4.5h-4a.5.5 0 1 1 0-1h4a.5.5 0 1 1 0 1z"/><path d="M49.25 7.25a.5.5 0 0 1-.5-.5v-4a.5.5 0 1 1 1 0v4a.5.5 0 0 1-.5.5zm7.5 4.5a.5.5 0 0 1-.5-.5v-4a.5.5 0 1 1 1 0v4a.5.5 0 0 1-.5.5z"/></g><defs ><path id="B" d="M47.25 60.75a.5.5 0 0 1-.5-.5v-3.5h-3.5a.5.5 0 0 1-.5-.5v-3.5h-3.5a.5.5 0 0 1-.5-.5v-3.5h-3.5a.5.5 0 0 1-.5-.5v-3.5h-3.5a.5.5 0 0 1-.5-.5v-3.5h-3.5a.5.5 0 1 1 0-1h4a.5.5 0 0 1 .5.5v3.5h3.5a.5.5 0 0 1 .5.5v3.5h3.5a.5.5 0 0 1 .5.5v3.5h3.5a.5.5 0 0 1 .5.5v3.5h3.5a.5.5 0 0 1 .5.5v4a.5.5 0 0 1-.5.5z"/><path id="C" d="M55.25 52.75a.5.5 0 0 1-.5-.5v-3.5h-3.5a.5.5 0 0 1-.5-.5v-3.5h-3.5a.5.5 0 0 1-.5-.5v-3.5h-3.5a.5.5 0 1 1 0-1h4a.5.5 0 0 1 .5.5v3.5h3.5a.5.5 0 0 1 .5.5v3.5h3.5a.5.5 0 0 1 .5.5v4a.5.5 0 0 1-.5.5z"/></defs></svg>