<svg xmlns="http://www.w3.org/2000/svg" viewBox="0 0 64 64"><circle cx="32" cy="32" r="24" fill="#40c4ff"/><path d="M32 56.5C18.49 56.5 7.5 45.51 7.5 32S18.49 7.5 32 7.5 56.5 18.49 56.5 32 45.5 56.5 32 56.5zm0-48C19.042 8.5 8.5 19.042 8.5 32S19.042 55.5 32 55.5 55.5 44.958 55.5 32 44.958 8.5 32 8.5z" fill="#263238"/><circle cx="32" cy="32" r="20" fill="#fff"/><g fill="#263238"><path d="M32 52.5c-11.304 0-20.5-9.196-20.5-20.5S20.697 11.5 32 11.5 52.5 20.696 52.5 32 43.304 52.5 32 52.5zm0-40c-10.752 0-19.5 8.748-19.5 19.5S21.248 51.5 32 51.5 51.5 42.752 51.5 32 42.753 12.5 32 12.5zm2.75 48h-1a.5.5 0 1 1 0-1h1a.5.5 0 1 1 0 1zM60 32.5a.5.5 0 0 1-.5-.5C59.5 16.836 47.164 4.5 32 4.5a.5.5 0 1 1 0-1c15.715 0 28.5 12.785 28.5 28.5a.5.5 0 0 1-.5.5zm-30-28h-1a.5.5 0 1 1 0-1h1a.5.5 0 1 1 0 1zm2 56C16.285 60.5 3.5 47.715 3.5 32a.5.5 0 1 1 1 0c0 15.164 12.336 27.5 27.5 27.5a.5.5 0 1 1 0 1zM20.792 24.733a.48.48 0 0 1-.19-.038.5.5 0 0 1-.271-.653l1.082-2.613a.5.5 0 0 1 .654-.271l2.613 1.083a.5.5 0 0 1 .271.653.5.5 0 0 1-.653.271l-2.15-.9-.9 2.15c-.08.192-.268.308-.463.308z"/><path d="M54 60.5a.49.49 0 0 1-.263-.075.5.5 0 0 1-.211-.583l1.78-5.342H53a.5.5 0 0 1-.354-.854l6-6a.5.5 0 0 1 .827.511l-1.78 5.342H60a.5.5 0 0 1 .354.854l-6 6A.5.5 0 0 1 54 60.5zm2.5-6.498c0 .052-.01.105-.026.156l-1.33 4 3.65-3.65H57a.5.5 0 0 1-.5-.498zm-2.293-.502H56a.5.5 0 0 1 .406.208c.062.086.094.188.094.3 0-.052.01-.105.026-.156l1.33-4-3.65 3.65zm-23.62-22.414c-.015 0-.03 0-.046-.002a9.87 9.87 0 0 1-8.938-8.938.5.5 0 0 1 .453-.543c.278-.026.52.178.543.453a8.87 8.87 0 0 0 8.033 8.033.5.5 0 0 1 .453.543.5.5 0 0 1-.498.454zm11.54 11.794c-.065 0-.13-.013-.2-.038l-2.613-1.083a.5.5 0 0 1-.271-.653.5.5 0 0 1 .653-.27l2.15.9.9-2.15a.5.5 0 0 1 .653-.271.5.5 0 0 1 .271.653l-1.082 2.613a.5.5 0 0 1-.271.271c-.06.026-.126.04-.2.04z"/><path d="M41.9 42.4a.5.5 0 0 1-.498-.455 8.87 8.87 0 0 0-8.033-8.033.5.5 0 0 1-.453-.543c.025-.274.264-.482.543-.453a9.87 9.87 0 0 1 8.938 8.938.5.5 0 0 1-.453.543c-.014.003-.03.003-.044.003zM14.5 6.5h-4a.5.5 0 1 1 0-1h4a.5.5 0 1 1 0 1z"/><path d="M12.5 8.5A.5.5 0 0 1 12 8V4a.5.5 0 1 1 1 0v4a.5.5 0 0 1-.5.5zM8 14H4a.5.5 0 1 1 0-1h4a.5.5 0 1 1 0 1z"/><path d="M6 16a.5.5 0 0 1-.5-.5v-4a.5.5 0 1 1 1 0v4a.5.5 0 0 1-.5.5z"/></g><circle transform="matrix(.7071 -.7071 .7071 .7071 -13.2548 32)" cx="32" cy="32" r="3" fill="#ff5252"/><path d="M32 35.5a3.48 3.48 0 0 1-3.5-3.5c0-.935.364-1.814 1.025-2.475 1.32-1.322 3.628-1.322 4.95 0 .662.66 1.026 1.54 1.026 2.475s-.364 1.814-1.025 2.475S32.935 35.5 32 35.5zm0-6c-.667 0-1.295.26-1.768.732A2.48 2.48 0 0 0 29.5 32c0 .667.26 1.295.732 1.768.944.944 2.59.944 3.535 0 .473-.473.733-1.1.733-1.768s-.26-1.295-.732-1.768A2.48 2.48 0 0 0 32 29.5z" fill="#263238"/></svg>