<?xml version="1.0" standalone="no"?><svg xmlns="http://www.w3.org/2000/svg" viewBox="0 0 1440 320"><path fill="#012d53" fill-opacity="1" d="M0,160L34.3,170.7C68.6,181,137,203,206,192C274.3,181,343,139,411,138.7C480,139,549,181,617,181.3C685.7,181,754,139,823,149.3C891.4,160,960,224,1029,256C1097.1,288,1166,288,1234,256C1302.9,224,1371,160,1406,128L1440,96L1440,0L1405.7,0C1371.4,0,1303,0,1234,0C1165.7,0,1097,0,1029,0C960,0,891,0,823,0C754.3,0,686,0,617,0C548.6,0,480,0,411,0C342.9,0,274,0,206,0C137.1,0,69,0,34,0L0,0Z"></path></svg>