<?xml version="1.0" standalone="no"?><svg xmlns="http://www.w3.org/2000/svg" viewBox="0 0 1440 320"><path fill="#ffff00" fill-opacity="1" d="M0,96L34.3,133.3C68.6,171,137,245,206,234.7C274.3,224,343,128,411,117.3C480,107,549,181,617,186.7C685.7,192,754,128,823,122.7C891.4,117,960,171,1029,208C1097.1,245,1166,267,1234,234.7C1302.9,203,1371,117,1406,74.7L1440,32L1440,320L1405.7,320C1371.4,320,1303,320,1234,320C1165.7,320,1097,320,1029,320C960,320,891,320,823,320C754.3,320,686,320,617,320C548.6,320,480,320,411,320C342.9,320,274,320,206,320C137.1,320,69,320,34,320L0,320Z"></path></svg>