<?xml version="1.0" standalone="no"?><svg xmlns="http://www.w3.org/2000/svg" viewBox="0 0 1440 320"><path fill="#000b76" fill-opacity="1" d="M0,96L30,80C60,64,120,32,180,42.7C240,53,300,107,360,112C420,117,480,75,540,90.7C600,107,660,181,720,186.7C780,192,840,128,900,122.7C960,117,1020,171,1080,202.7C1140,235,1200,245,1260,229.3C1320,213,1380,171,1410,149.3L1440,128L1440,320L1410,320C1380,320,1320,320,1260,320C1200,320,1140,320,1080,320C1020,320,960,320,900,320C840,320,780,320,720,320C660,320,600,320,540,320C480,320,420,320,360,320C300,320,240,320,180,320C120,320,60,320,30,320L0,320Z"></path></svg>