<?xml version="1.0" standalone="no"?><svg xmlns="http://www.w3.org/2000/svg" viewBox="0 0 1440 320"><path fill="#f9f8ff" fill-opacity="1" d="M0,128L12,154.7C24,181,48,235,72,240C96,245,120,203,144,154.7C168,107,192,53,216,48C240,43,264,85,288,122.7C312,160,336,192,360,181.3C384,171,408,117,432,85.3C456,53,480,43,504,80C528,117,552,203,576,208C600,213,624,139,648,133.3C672,128,696,192,720,213.3C744,235,768,213,792,197.3C816,181,840,171,864,154.7C888,139,912,117,936,128C960,139,984,181,1008,176C1032,171,1056,117,1080,101.3C1104,85,1128,107,1152,117.3C1176,128,1200,128,1224,106.7C1248,85,1272,43,1296,21.3C1320,0,1344,0,1368,26.7C1392,53,1416,107,1428,133.3L1440,160L1440,0L1428,0C1416,0,1392,0,1368,0C1344,0,1320,0,1296,0C1272,0,1248,0,1224,0C1200,0,1176,0,1152,0C1128,0,1104,0,1080,0C1056,0,1032,0,1008,0C984,0,960,0,936,0C912,0,888,0,864,0C840,0,816,0,792,0C768,0,744,0,720,0C696,0,672,0,648,0C624,0,600,0,576,0C552,0,528,0,504,0C480,0,456,0,432,0C408,0,384,0,360,0C336,0,312,0,288,0C264,0,240,0,216,0C192,0,168,0,144,0C120,0,96,0,72,0C48,0,24,0,12,0L0,0Z"></path></svg>