<?xml version="1.0" standalone="no"?><svg xmlns="http://www.w3.org/2000/svg" viewBox="0 0 1440 320"><path fill="#ffff00" fill-opacity="1" d="M0,288L40,282.7C80,277,160,267,240,224C320,181,400,107,480,90.7C560,75,640,117,720,144C800,171,880,181,960,192C1040,203,1120,213,1200,202.7C1280,192,1360,160,1400,144L1440,128L1440,320L1400,320C1360,320,1280,320,1200,320C1120,320,1040,320,960,320C880,320,800,320,720,320C640,320,560,320,480,320C400,320,320,320,240,320C160,320,80,320,40,320L0,320Z"></path></svg>